<svg width="64" height="64" viewBox="0 0 64 64" fill="none" xmlns="http://www.w3.org/2000/svg">
  <rect width="64" height="64" rx="14" fill="#1769FF"/>
  <path d="M14 37.5C20.6 25.7 31.9 18.4 50 16C43.8 22.8 38.5 29.7 35.2 37.4C31.4 34.6 24.2 34 14 37.5Z" fill="white"/>
  <path d="M17.5 42.5C26 38.9 33.3 39.7 38.7 45.2C33.5 48.9 25.5 50 17.5 42.5Z" fill="#BFE0FF"/>
  <path d="M35.2 37.4C37 33.4 39.4 29.4 42.4 25.3C35 29.1 29.8 34.5 26.8 41.2C30 40.8 32.8 41.8 35.2 37.4Z" fill="#67B8FF"/>
  <circle cx="47.2" cy="20.2" r="1.8" fill="#1769FF"/>
</svg>
